name rise30.9205peak61.366fall85.3838.mot
datacolumns 19
datarows 14
range 21.38492500000000 21.40659100000000
endheader
time	ground_force1_vx	ground_force1_vy	ground_force1_vz	ground_force1_px	ground_force1_py	ground_force1_pz	ground_force2_vx	ground_force2_vy	ground_force2_vz	ground_force2_px	ground_force2_py	ground_force2_pz	ground_torque1_x	ground_torque1_y	ground_torque1_z	ground_torque2_x	ground_torque2_y	ground_torque2_z	
21.38492500000000	-34.64196700000000	816.23642299999995	66.99806000000000	0.15996400000000	0.00000000000000	0.09944100000000	-6.10769000000000	38.96764000000000	7.10056900000000	0.38071100000000	0.00000000000000	-0.08288800000000	0.00000000000000	27.57990200000000	0.00000000000000	0.00000000000000	5.01088400000000	0.00000000000000	
21.38658500000000	-34.72992600000000	812.86564399999997	66.67000100000000	0.15914700000000	0.00000000000000	0.09923000000000	-6.74027500000000	45.51811400000000	7.97259000000000	0.38329800000000	0.00000000000000	-0.08430500000000	0.00000000000000	27.36276600000000	0.00000000000000	0.00000000000000	5.65888500000000	0.00000000000000	
21.38825000000000	-34.82839000000000	809.37256400000001	66.30959700000000	0.15833800000000	0.00000000000000	0.09901300000000	-7.26626100000000	52.11063600000000	8.76002700000000	0.38590700000000	0.00000000000000	-0.08558300000000	0.00000000000000	27.14101800000000	0.00000000000000	0.00000000000000	6.25789800000000	0.00000000000000	
21.38992400000000	-34.93785300000000	805.75907099999995	65.91682600000000	0.15753900000000	0.00000000000000	0.09878800000000	-7.66809300000000	58.65717900000000	9.44379900000000	0.38853100000000	0.00000000000000	-0.08674300000000	0.00000000000000	26.91495300000000	0.00000000000000	0.00000000000000	6.79466000000000	0.00000000000000	
21.39158500000000	-35.05878400000000	802.02708600000005	65.49173800000000	0.15675200000000	0.00000000000000	0.09855600000000	-7.93456800000000	65.09224800000000	10.01121500000000	0.39116100000000	0.00000000000000	-0.08780200000000	0.00000000000000	26.68486800000000	0.00000000000000	0.00000000000000	7.26008400000000	0.00000000000000	
21.39325800000000	-35.19162600000000	798.17855299999997	65.03444700000000	0.15597800000000	0.00000000000000	0.09831600000000	-8.06080600000000	71.37476400000000	10.45605300000000	0.39379000000000	0.00000000000000	-0.08877400000000	0.00000000000000	26.45106200000000	0.00000000000000	0.00000000000000	7.64939000000000	0.00000000000000	
21.39492000000000	-35.33679700000000	794.21543099999997	64.54513600000000	0.15521700000000	0.00000000000000	0.09806900000000	-8.04772500000000	77.48763000000000	10.77810000000000	0.39641300000000	0.00000000000000	-0.08966900000000	0.00000000000000	26.21383000000000	0.00000000000000	0.00000000000000	7.96186100000000	0.00000000000000	
21.39658700000000	-35.49468300000000	790.13968699999998	64.02405600000000	0.15447100000000	0.00000000000000	0.09781500000000	-7.90112300000000	83.43539699999999	10.98227300000000	0.39902300000000	0.00000000000000	-0.09049900000000	0.00000000000000	25.97346800000000	0.00000000000000	0.00000000000000	8.20030300000000	0.00000000000000	
21.39825600000000	-35.66563600000000	785.95328099999995	63.47152400000000	0.15374200000000	0.00000000000000	0.09755200000000	-7.63053100000000	89.24054500000000	11.07747600000000	0.40161500000000	0.00000000000000	-0.09127000000000	0.00000000000000	25.73026600000000	0.00000000000000	0.00000000000000	8.37031400000000	0.00000000000000	
21.39991500000000	-35.84997600000000	781.65816199999995	62.88792400000000	0.15302900000000	0.00000000000000	0.09728300000000	-7.24795700000000	94.93894299999999	11.07532600000000	0.40418500000000	0.00000000000000	-0.09199000000000	0.00000000000000	25.48451200000000	0.00000000000000	0.00000000000000	8.47944200000000	0.00000000000000	
21.40158300000000	-36.04798300000000	777.25626000000000	62.27370700000000	0.15233500000000	0.00000000000000	0.09700600000000	-6.76665500000000	100.57498699999999	10.98888000000000	0.40672700000000	0.00000000000000	-0.09266400000000	0.00000000000000	25.23648400000000	0.00000000000000	0.00000000000000	8.53632200000000	0.00000000000000	
21.40325600000000	-36.25989600000000	772.74947499999996	61.62938700000000	0.15166100000000	0.00000000000000	0.09672100000000	-6.20000500000000	106.19688900000000	10.83147100000000	0.40923900000000	0.00000000000000	-0.09329800000000	0.00000000000000	24.98645600000000	0.00000000000000	0.00000000000000	8.54988000000000	0.00000000000000	
21.40492400000000	-36.48591300000000	768.13967200000002	60.95554200000000	0.15100700000000	0.00000000000000	0.09642800000000	-5.56058000000000	111.85244600000000	10.61571400000000	0.41171600000000	0.00000000000000	-0.09389600000000	0.00000000000000	24.73469200000000	0.00000000000000	0.00000000000000	8.52862900000000	0.00000000000000	
21.40659100000000	-36.72618500000000	763.42867300000000	60.25281200000000	0.15037300000000	0.00000000000000	0.09612800000000	-4.85944600000000	117.58555699999999	10.35274500000000	0.41415400000000	0.00000000000000	-0.09446200000000	0.00000000000000	24.48144600000000	0.00000000000000	0.00000000000000	8.48012800000000	0.00000000000000	
